<svg width="1527" height="1069" viewBox="0 0 1527 1069" fill="none" xmlns="http://www.w3.org/2000/svg">
<rect width="1527" height="1069" fill="#1E1E1E"/>
<rect x="2" width="1525" height="1069" fill="#01030C"/>
<circle cx="449.5" cy="588.5" r="6.5" fill="#26677E"/>
<ellipse cx="170" cy="786.5" rx="7" ry="7.5" fill="#26677E"/>
<ellipse cx="553.5" cy="813" rx="6.5" ry="7" fill="#26677E"/>
<ellipse cx="871" cy="866.5" rx="7" ry="6.5" fill="#26677E"/>
<ellipse cx="1211.5" cy="832" rx="6.5" ry="7" fill="#26677E"/>
<ellipse cx="1178" cy="587.5" rx="7" ry="6.5" fill="#26677E"/>
<circle cx="1040.5" cy="693.5" r="6.5" fill="#26677E"/>
<circle cx="1001.5" cy="458.5" r="6.5" fill="#26677E"/>
<ellipse cx="1229.5" cy="519" rx="7.5" ry="7" fill="#D9D9D9"/>
<ellipse cx="752.5" cy="254" rx="6.5" ry="7" fill="#26677E"/>
<line x1="289.5" x2="289.5" y2="465" stroke="#26677E"/>
<line x1="324.5" y1="509" x2="324.5" y2="675" stroke="#26677E"/>
<line x1="298.5" x2="298.5" y2="212" stroke="#26677E"/>
<line y1="-0.5" x2="56.0911" y2="-0.5" transform="matrix(0.630201 0.776432 -0.775796 0.630984 288.228 465.453)" stroke="#26677E"/>
<line y1="-0.5" x2="52.2656" y2="-0.5" transform="matrix(0.624302 0.781183 -0.780555 0.625088 296.385 212.313)" stroke="#26677E"/>
<line x1="329.5" y1="254" x2="329.5" y2="301" stroke="#26677E"/>
<ellipse cx="331" cy="306.5" rx="7" ry="6.5" fill="#26677E"/>
<circle cx="214" cy="258" r="7" fill="#26677E"/>
<ellipse cx="324.5" cy="680" rx="6.5" ry="7" fill="#26677E"/>
<ellipse cx="536" cy="240.5" rx="7" ry="6.5" fill="#26677E"/>
<ellipse cx="844" cy="768.5" rx="7" ry="6.5" fill="#26677E"/>
<circle cx="520.5" cy="399.5" r="7.5" fill="#26677E"/>
<circle cx="376.5" cy="429.5" r="7.5" fill="#26677E"/>
<line y1="-0.5" x2="152.279" y2="-0.5" transform="matrix(-0.99999 -0.00446867 0.00445947 -0.99999 1520 395.363)" stroke="#26677E"/>
<line y1="-0.5" x2="29.4329" y2="-0.5" transform="matrix(-0.554304 0.832314 -0.831786 -0.555096 1367.72 394.682)" stroke="#26677E"/>
<line x1="1353" y1="419.5" x2="1253" y2="419.5" stroke="#26677E"/>
<line x1="1520" y1="414.5" x2="1463" y2="414.5" stroke="#26677E"/>
<line y1="-0.5" x2="28.9216" y2="-0.5" transform="matrix(-0.65812 0.752913 -0.75224 -0.658889 1462.89 413.736)" stroke="#26677E"/>
<line x1="1443" y1="435.5" x2="1235" y2="435.5" stroke="#26677E"/>
<line x1="1520" y1="422.5" x2="1466" y2="422.5" stroke="#26677E"/>
<line y1="-0.5" x2="32.1886" y2="-0.5" transform="matrix(-0.648683 0.761059 -0.760398 -0.649457 1464.74 421.902)" stroke="#26677E"/>
<line x1="1446" y1="446.5" x2="1253" y2="446.5" stroke="#26677E"/>
<line x1="1520" y1="433.5" x2="1469" y2="433.5" stroke="#26677E"/>
<line y1="-0.5" x2="32.7615" y2="-0.5" transform="matrix(-0.663981 0.747749 -0.747069 -0.664746 1468.33 432.789)" stroke="#26677E"/>
<line x1="1446" y1="457.5" x2="1253" y2="457.5" stroke="#26677E"/>
<line y1="-0.5" x2="85.362" y2="-0.5" transform="matrix(-0.860061 -0.510191 0.509414 -0.860522 1253.52 419.18)" stroke="#26677E"/>
<line x1="1178.5" y1="376" x2="1178.5" y2="321" stroke="#26677E"/>
<circle cx="1178" cy="317" r="7" fill="#26677E"/>
<path d="M1234.49 435.511L1166.51 394.682" stroke="#26677E"/>
<line x1="1166" y1="394.5" x2="1061" y2="394.5" stroke="#26677E"/>
<line y1="-0.5" x2="31.8304" y2="-0.5" transform="matrix(-0.93968 0.342054 -0.341432 -0.939906 1253.52 446.399)" stroke="#26677E"/>
<line x1="1222" y1="457.5" x2="1006" y2="457.5" stroke="#26677E"/>
<line y1="-0.5" x2="31.8304" y2="-0.5" transform="matrix(-0.93968 0.342054 -0.341432 -0.939906 1253.52 457.287)" stroke="#26677E"/>
<line x1="1222" y1="469.5" x2="1185" y2="469.5" stroke="#26677E"/>
<line y1="-0.5" x2="58.8425" y2="-0.5" transform="matrix(-0.831786 0.555096 -0.554304 -0.832314 1185.54 468.174)" stroke="#26677E"/>
<line x1="1136.5" y1="501" x2="1136.5" y2="555" stroke="#26677E"/>
<line x1="1235.5" x2="1235.5" y2="321" stroke="#26677E"/>
<line y1="-0.5" x2="78.8974" y2="-0.5" transform="matrix(0.689282 0.724493 -0.723783 0.690028 1234.49 321.19)" stroke="#26677E"/>
<line x1="1288" y1="378.5" x2="1432" y2="378.5" stroke="#26677E"/>
<line x1="1253.5" x2="1253.5" y2="305" stroke="#26677E"/>
<line y1="-0.5" x2="71.2051" y2="-0.5" transform="matrix(0.687371 0.726306 -0.725599 0.688118 1253.52 304.858)" stroke="#26677E"/>
<line x1="1302" y1="355.5" x2="1376" y2="355.5" stroke="#26677E"/>
<line y1="-0.5" x2="18.2442" y2="-0.5" transform="matrix(0.894243 0.447582 -0.446845 0.894611 1375.88 356.575)" stroke="#26677E"/>
<path d="M1392 363H1490" stroke="#26677E"/>
<line y1="-0.5" x2="100.725" y2="-0.5" transform="matrix(-0.00661134 0.999978 -0.999978 -0.00662498 696.763 -0.00914001)" stroke="#26677E"/>
<line y1="-0.5" x2="40.4456" y2="-0.5" transform="matrix(0.672293 0.740285 -0.739595 0.673052 696.098 100.713)" stroke="#26677E"/>
<line x1="723.5" y1="132" x2="723.5" y2="234" stroke="#26677E"/>
<line x1="704.5" x2="704.5" y2="95" stroke="#26677E"/>
<line y1="-0.5" x2="36.603" y2="-0.5" transform="matrix(0.668584 0.743637 -0.742951 0.669346 704.255 95.2694)" stroke="#26677E"/>
<line y1="-0.5" x2="17.4179" y2="-0.5" transform="matrix(0.780555 -0.625088 0.624302 0.781183 728.727 122.489)" stroke="#26677E"/>
<line x1="742.5" y1="112" x2="742.5" stroke="#26677E"/>
<line x1="747.5" x2="747.5" y2="117" stroke="#26677E"/>
<line y1="-0.5" x2="21.2461" y2="-0.5" transform="matrix(-0.767897 0.640574 -0.639795 -0.768546 747.761 117.045)" stroke="#26677E"/>
<line x1="731.5" y1="132" x2="731.5" y2="177" stroke="#26677E"/>
<line x1="753.5" x2="753.5" y2="106" stroke="#26677E"/>
<line y1="-0.5" x2="35.4792" y2="-0.5" transform="matrix(0.536482 0.843912 -0.843411 0.537269 731.446 176.927)" stroke="#26677E"/>
<line x1="750.5" y1="207" x2="750.5" y2="251" stroke="#26677E"/>
<line y1="-0.5" x2="25.0841" y2="-0.5" transform="matrix(0.650405 0.759588 -0.758925 0.651178 753.199 106.157)" stroke="#26677E"/>
<line x1="770.5" y1="125" x2="770.5" y2="179" stroke="#26677E"/>
<line x1="763.5" x2="763.5" y2="95" stroke="#26677E"/>
<line y1="-0.5" x2="40.8139" y2="-0.5" transform="matrix(-0.599604 0.800297 -0.799703 -0.600396 723.289 234.088)" stroke="#26677E"/>
<line x1="699.5" y1="267" x2="699.5" y2="310" stroke="#26677E"/>
<line y1="-0.5" x2="67.3592" y2="-0.5" transform="matrix(0.686249 0.727366 -0.72666 0.686997 764.076 95.2694)" stroke="#26677E"/>
<line x1="810.5" y1="145" x2="810.5" y2="228" stroke="#26677E"/>
<line y1="-0.5" x2="40.8139" y2="-0.5" transform="matrix(-0.599604 0.800297 -0.799703 -0.600396 810.301 228.644)" stroke="#26677E"/>
<line x1="786.5" y1="261" x2="786.5" y2="292" stroke="#26677E"/>
<line x1="1158.5" x2="1158.5" y2="145" stroke="#26677E"/>
<line y1="-0.5" x2="61.1499" y2="-0.5" transform="matrix(-0.5336 0.845737 -0.84524 -0.534386 1158.35 144.264)" stroke="#26677E"/>
<line x1="1126" y1="195.5" x2="1011" y2="195.5" stroke="#26677E"/>
<line y1="-0.5" x2="50.1681" y2="-0.5" transform="matrix(-0.650405 0.759588 -0.758925 -0.651178 1011.52 195.981)" stroke="#26677E"/>
<line x1="1148.5" x2="1148.5" y2="122" stroke="#26677E"/>
<line y1="-0.5" x2="67.2076" y2="-0.5" transform="matrix(-0.525963 0.850508 -0.850022 -0.526747 1147.47 122.489)" stroke="#26677E"/>
<line x1="1112" y1="179.5" x2="998" y2="179.5" stroke="#26677E"/>
<line y1="-0.5" x2="67.5826" y2="-0.5" transform="matrix(-0.643747 0.765238 -0.764584 -0.644524 997.921 179.649)" stroke="#26677E"/>
<line x1="979.5" y1="234" x2="979.5" y2="353" stroke="#26677E"/>
<line x1="955" y1="231.5" x2="854" y2="231.5" stroke="#26677E"/>
<line x1="1166.5" x2="1166.5" y2="177" stroke="#26677E"/>
<line y1="-0.5" x2="65.5152" y2="-0.5" transform="matrix(0.747069 0.664746 -0.663981 0.747749 1166.51 176.927)" stroke="#26677E"/>
<line x1="1216.5" y1="220" x2="1216.5" y2="274" stroke="#26677E"/>
<line x1="843.5" x2="843.5" y2="99" stroke="#26677E"/>
<line y1="-0.5" x2="68.6768" y2="-0.5" transform="matrix(0.554304 0.832314 -0.831786 0.555096 842.931 100.713)" stroke="#26677E"/>
<line x1="880" y1="158.5" x2="1041" y2="158.5" stroke="#26677E"/>
<line x1="999.5" y1="1067" x2="999.5" y2="863" stroke="#26677E"/>
<line y1="-0.5" x2="74.7188" y2="-0.5" transform="matrix(0.545873 -0.837868 0.837353 0.546663 1000.64 862.855)" stroke="#26677E"/>
<line x1="1040.5" y1="800" x2="1040.5" y2="697" stroke="#26677E"/>
<line x1="986.5" y1="1067" x2="986.5" y2="843" stroke="#26677E"/>
<line y1="-0.5" x2="44.289" y2="-0.5" transform="matrix(-0.675346 -0.737501 0.736807 -0.676103 987.044 843.801)" stroke="#26677E"/>
<line x1="956.5" y1="812" x2="956.5" y2="783" stroke="#26677E"/>
<line x1="717.5" y1="1067" x2="717.5" y2="1001" stroke="#26677E"/>
<line x1="722.5" y1="1067" x2="722.5" y2="994" stroke="#26677E"/>
<line x1="769.5" y1="1067" x2="769.5" y2="961" stroke="#26677E"/>
<line x1="812.5" y1="1067" x2="812.5" y2="868" stroke="#26677E"/>
<line x1="855.5" y1="1067" x2="855.5" y2="950" stroke="#26677E"/>
<line x1="842.5" y1="1067" x2="842.5" y2="985" stroke="#26677E"/>
<line x1="976.5" y1="1067" x2="976.5" y2="969" stroke="#26677E"/>
<line x1="929.5" y1="1067" x2="929.5" y2="950" stroke="#26677E"/>
<line x1="920.5" y1="1067" x2="920.5" y2="977" stroke="#26677E"/>
<line x1="1520" y1="797.5" x2="1325" y2="797.5" stroke="#26677E"/>
<line x1="1520" y1="816.5" x2="1480" y2="816.5" stroke="#26677E"/>
<line x1="1520" y1="697.5" x2="1205" y2="697.5" stroke="#26677E"/>
<line x1="1255.5" y1="1067" x2="1255.5" y2="892" stroke="#26677E"/>
<line x1="1221.5" y1="1067" x2="1221.5" y2="981" stroke="#26677E"/>
<line y1="-0.5" x2="82.7398" y2="-0.5" transform="matrix(-0.723 -0.690848 0.690103 -0.723711 1204.58 696.817)" stroke="#26677E"/>
<line x1="1144" y1="640.5" x2="1008" y2="640.5" stroke="#26677E"/>
<line x1="1520" y1="624.5" x2="1336" y2="624.5" stroke="#26677E"/>
<line x1="1520" y1="555.5" x2="1336" y2="555.5" stroke="#26677E"/>
<line y1="-0.5" x2="64.1971" y2="-0.5" transform="matrix(-0.804764 -0.593595 0.592803 -0.805348 1335.09 555.276)" stroke="#26677E"/>
<line x1="1283" y1="517.5" x2="1237" y2="517.5" stroke="#26677E"/>
<line y1="-0.5" x2="55.065" y2="-0.5" transform="matrix(-0.938227 0.346019 -0.345392 -0.938459 1335.09 623.325)" stroke="#26677E"/>
<line x1="1283" y1="642.5" x2="1235" y2="642.5" stroke="#26677E"/>
<line x1="1520" y1="615.5" x2="1313" y2="615.5" stroke="#26677E"/>
<line y1="-0.5" x2="46.3251" y2="-0.5" transform="matrix(-0.763058 -0.64633 0.645554 -0.763714 1316.06 615.159)" stroke="#26677E"/>
<line x1="1282" y1="585.5" x2="1182" y2="585.5" stroke="#26677E"/>
<line x1="473.5" x2="473.5" y2="278" stroke="#26677E"/>
<line y1="-0.5" x2="69.3642" y2="-0.5" transform="matrix(0.666413 0.745583 -0.7449 0.667176 473.129 277.639)" stroke="#26677E"/>
<line x1="520.5" y1="329" x2="520.5" y2="394" stroke="#26677E"/>
<line x1="1130.5" y1="1067" x2="1130.5" y2="855" stroke="#26677E"/>
<line x1="447.5" y1="1067" x2="447.5" y2="892" stroke="#26677E"/>
<line y1="-0.5" x2="108.837" y2="-0.5" transform="matrix(-0.599604 -0.800297 0.799703 -0.600396 448.657 892.796)" stroke="#26677E"/>
<line x1="383.5" y1="806" x2="383.5" y2="734" stroke="#26677E"/>
<line y1="690.5" x2="160" y2="690.5" stroke="#26677E"/>
<line y1="-0.5" x2="82.7398" y2="-0.5" transform="matrix(0.723 0.690848 -0.690103 0.723711 160.429 691.373)" stroke="#26677E"/>
<line x1="221" y1="748.5" x2="293" y2="748.5" stroke="#26677E"/>
<line y1="-0.5" x2="105.967" y2="-0.5" transform="matrix(-0.667164 -0.744911 0.744227 -0.667926 1324.22 797.529)" stroke="#26677E"/>
<line x1="1253" y1="719.5" x2="1148" y2="719.5" stroke="#26677E"/>
<line y1="-0.5" x2="88.8166" y2="-0.5" transform="matrix(-0.765378 -0.643581 0.642803 -0.766031 1131.16 854.689)" stroke="#26677E"/>
<line x1="1063.5" y1="800" x2="1063.5" y2="732" stroke="#26677E"/>
<line y1="-0.5" x2="204.163" y2="-0.5" transform="matrix(0.0133184 -0.999911 0.999911 0.0133459 516.635 1067)" stroke="#26677E"/>
<line y1="-0.5" x2="43.0232" y2="-0.5" transform="matrix(0.568813 -0.822467 0.821918 0.569607 519.354 862.855)" stroke="#26677E"/>
<line x1="542.5" y1="826" x2="542.5" y2="773" stroke="#26677E"/>
<line x1="616.5" y1="1067" x2="616.5" y2="961" stroke="#26677E"/>
<line y1="-0.5" x2="111.696" y2="-0.5" transform="matrix(-0.559913 -0.828551 0.828015 -0.560706 617.243 960.844)" stroke="#26677E"/>
<line x1="549.5" y1="886" x2="549.5" y2="982" stroke="#26677E"/>
<line x1="527.5" y1="1067" x2="527.5" y2="1015" stroke="#26677E"/>
<line y1="-0.5" x2="40.8139" y2="-0.5" transform="matrix(0.599604 -0.800297 0.799703 0.600396 527.511 1015.28)" stroke="#26677E"/>
<line x1="554.5" y1="868" x2="554.5" y2="816" stroke="#26677E"/>
<line y1="-0.5" x2="101.885" y2="-0.5" transform="matrix(0.560452 0.828187 -0.82765 0.561244 549.264 884.63)" stroke="#26677E"/>
<line x1="606.5" y1="969" x2="606.5" y2="1067" stroke="#26677E"/>
<line y1="-0.5" x2="31.7343" y2="-0.5" transform="matrix(-0.514106 -0.857727 0.857259 -0.514886 717.851 1001.67)" stroke="#26677E"/>
<line y1="-0.5" x2="31.7343" y2="-0.5" transform="matrix(-0.514106 -0.857727 0.857259 -0.514886 723.289 993.508)" stroke="#26677E"/>
<line x1="706.5" y1="968" x2="706.5" y2="906" stroke="#26677E"/>
<line y1="-0.5" x2="50.6127" y2="-0.5" transform="matrix(0.590967 -0.806695 0.806114 0.59176 706.974 906.406)" stroke="#26677E"/>
<line x1="702.5" y1="974" x2="702.5" y2="929" stroke="#26677E"/>
<line x1="735.5" y1="865" x2="735.5" y2="813" stroke="#26677E"/>
<line y1="-0.5" x2="58.8658" y2="-0.5" transform="matrix(0.554304 -0.832314 0.831786 0.555096 813.02 868.299)" stroke="#26677E"/>
<line x1="846.5" y1="820" x2="846.5" y2="773" stroke="#26677E"/>
<line y1="-0.5" x2="40.8139" y2="-0.5" transform="matrix(0.599604 -0.800297 0.799703 0.600396 929.943 949.957)" stroke="#26677E"/>
<line y1="-0.5" x2="77.34" y2="-0.5" transform="matrix(-0.632847 -0.774277 0.773637 -0.633629 921.785 977.176)" stroke="#26677E"/>
<line x1="954.5" y1="918" x2="954.5" y2="849" stroke="#26677E"/>
<line y1="-0.5" x2="44.2851" y2="-0.5" transform="matrix(-0.736807 -0.676103 0.675346 -0.737501 954.415 849.245)" stroke="#26677E"/>
<line x1="920.5" y1="820" x2="920.5" y2="797" stroke="#26677E"/>
<line x1="873.5" y1="918" x2="873.5" y2="872" stroke="#26677E"/>
<line x1="397.5" x2="397.5" y2="159" stroke="#26677E"/>
<line y1="-0.5" x2="66.4284" y2="-0.5" transform="matrix(-0.573066 0.819509 -0.818954 -0.573859 396.993 157.874)" stroke="#26677E"/>
<line x1="358.5" y1="212" x2="358.5" y2="278" stroke="#26677E"/>
<line x1="658.5" x2="658.5" y2="77" stroke="#26677E"/>
<line y1="-0.5" x2="88.5781" y2="-0.5" transform="matrix(-0.675346 0.737501 -0.736807 -0.676103 658.03 76.2159)" stroke="#26677E"/>
<line x1="599.5" y1="145" x2="599.5" y2="212" stroke="#26677E"/>
<line x1="623.5" x2="623.5" y2="77" stroke="#26677E"/>
<line y1="-0.5" x2="75.0512" y2="-0.5" transform="matrix(-0.688376 0.725354 -0.724645 -0.689122 622.681 76.2159)" stroke="#26677E"/>
<line x1="572.5" y1="133" x2="572.5" y2="195" stroke="#26677E"/>
<line y1="-0.5" x2="47.6014" y2="-0.5" transform="matrix(0.514106 0.857727 -0.857259 0.514886 598.209 212.313)" stroke="#26677E"/>
<line x1="623.5" y1="254" x2="623.5" y2="278" stroke="#26677E"/>
<line y1="-0.5" x2="52.2656" y2="-0.5" transform="matrix(-0.624302 0.781183 -0.780555 -0.625088 571.017 195.981)" stroke="#26677E"/>
<line x1="485.5" x2="485.5" y2="148" stroke="#26677E"/>
<line y1="-0.5" x2="54.7666" y2="-0.5" transform="matrix(0.446845 0.894611 -0.894243 0.447582 484.005 146.986)" stroke="#26677E"/>
<line x1="509.5" y1="195" x2="509.5" y2="271" stroke="#26677E"/>
<line y1="-0.5" x2="51.9777" y2="-0.5" transform="matrix(0.680074 0.733143 -0.732444 0.680828 508.477 272.195)" stroke="#26677E"/>
<line x1="323.5" y1="1067" x2="323.5" y2="890" stroke="#26677E"/>
<line y1="-0.5" x2="118.06" y2="-0.5" transform="matrix(-0.437605 -0.899167 0.898812 -0.438334 323.577 890.074)" stroke="#26677E"/>
<line x1="272" y1="783.5" x2="174" y2="783.5" stroke="#26677E"/>
<line x1="163" y1="801.5" x2="245" y2="801.5" stroke="#26677E"/>
<line x1="287.5" y1="1067" x2="287.5" y2="899" stroke="#26677E"/>
<line y1="-0.5" x2="107.214" y2="-0.5" transform="matrix(-0.405789 -0.913967 0.913656 -0.406488 288.228 898.24)" stroke="#26677E"/>
<line x1="330.5" y1="1067" x2="330.5" y2="958" stroke="#26677E"/>
<line y1="-0.5" x2="58.4294" y2="-0.5" transform="matrix(0.465371 -0.885116 0.88472 0.466122 331.734 958.123)" stroke="#26677E"/>
<line x1="357.5" y1="906" x2="357.5" y2="796" stroke="#26677E"/>
<line y1="485.5" x2="187" y2="485.5" stroke="#26677E"/>
<line y1="-0.5" x2="110.992" y2="-0.5" transform="matrix(0.808448 -0.588568 0.587775 0.809024 187.62 487.228)" stroke="#26677E"/>
<line x1="276.5" y1="422" x2="276.5" y2="335" stroke="#26677E"/>
<line x1="1429.5" y1="1067" x2="1429.5" y2="899" stroke="#26677E"/>
<line y1="-0.5" x2="126.001" y2="-0.5" transform="matrix(-0.841626 -0.54006 0.539272 -0.842132 1430.26 898.24)" stroke="#26677E"/>
<line x1="1325" y1="829.5" x2="1216" y2="829.5" stroke="#26677E"/>
<line y1="-0.5" x2="65.4061" y2="-0.5" transform="matrix(0.706742 -0.707471 0.706742 0.707471 1256.24 892.796)" stroke="#26677E"/>
<line x1="1302" y1="846.5" x2="1322" y2="846.5" stroke="#26677E"/>
<line y1="-0.5" x2="78.4566" y2="-0.5" transform="matrix(0.831786 0.555096 -0.554304 0.832314 1321.5 846.523)" stroke="#26677E"/>
<line y1="-0.5" x2="37.8044" y2="-0.5" transform="matrix(0.503484 -0.864005 0.863553 0.504259 1223.61 979.898)" stroke="#26677E"/>
<line x1="1242.5" y1="947" x2="1242.5" y2="868" stroke="#26677E"/>
<line y1="-0.5" x2="24.3257" y2="-0.5" transform="matrix(-0.894243 -0.447582 0.446845 -0.894611 1479.21 816.582)" stroke="#26677E"/>
<line x1="1457" y1="806.5" x2="1392" y2="806.5" stroke="#26677E"/>
<line y1="534.5" x2="254" y2="534.5" stroke="#26677E"/>
<line y1="-0.5" x2="55.8187" y2="-0.5" transform="matrix(0.730704 0.682694 -0.681942 0.731406 255.598 533.501)" stroke="#26677E"/>
<line x1="298.5" y1="571" x2="298.5" y2="637" stroke="#26677E"/>
<line y1="-0.5" x2="15.8671" y2="-0.5" transform="matrix(0.514106 -0.857727 0.857259 0.514886 856.526 949.957)" stroke="#26677E"/>
<line x1="863.5" y1="935" x2="863.5" y2="895" stroke="#26677E"/>
<line y1="-0.5" x2="83.822" y2="-0.5" transform="matrix(-0.583908 -0.81182 0.811249 -0.584701 543.826 773.031)" stroke="#26677E"/>
<line x1="155.5" x2="155.5" y2="128" stroke="#26677E"/>
<line y1="-0.5" x2="49.0548" y2="-0.5" transform="matrix(0.554304 0.832314 -0.831786 0.555096 154.99 127.933)" stroke="#26677E"/>
<line x1="182.5" y1="168" x2="182.5" y2="218" stroke="#26677E"/>
<line x1="139.5" x2="139.5" y2="82" stroke="#26677E"/>
<line y1="-0.5" x2="25.6713" y2="-0.5" transform="matrix(-0.529606 0.848244 -0.847753 -0.530392 138.676 81.6598)" stroke="#26677E"/>
<line x1="125.5" y1="103" x2="125.5" y2="188" stroke="#26677E"/>
<line y1="-0.5" x2="46.8136" y2="-0.5" transform="matrix(0.580842 0.814017 -0.81345 0.581635 182.182 217.756)" stroke="#26677E"/>
<line y1="541.5" x2="238" y2="541.5" stroke="#26677E"/>
<line y1="-0.5" x2="55.8187" y2="-0.5" transform="matrix(0.730704 0.682694 -0.681942 0.731406 239.284 541.667)" stroke="#26677E"/>
<line x1="280.5" y1="581" x2="280.5" y2="677" stroke="#26677E"/>
<line y1="-0.5" x2="33.2142" y2="-0.5" transform="matrix(0.573066 0.819509 -0.818954 0.573859 280.07 677.763)" stroke="#26677E"/>
<line x1="494.5" y1="704" x2="494.5" y2="657" stroke="#26677E"/>
<line x1="412.5" x2="412.5" y2="288" stroke="#26677E"/>
<line y1="-0.5" x2="64.2167" y2="-0.5" transform="matrix(-0.592803 0.805348 -0.804764 -0.593595 413.308 288.527)" stroke="#26677E"/>
<line x1="376.5" y1="340" x2="376.5" y2="425" stroke="#26677E"/>
<line x1="424.5" x2="424.5" y2="93" stroke="#26677E"/>
<line y1="-0.5" x2="86.9636" y2="-0.5" transform="matrix(0.343942 0.938991 -0.938762 0.344567 424.184 92.5475)" stroke="#26677E"/>
<line x1="455.5" y1="175" x2="455.5" y2="335" stroke="#26677E"/>
<line y1="-0.5" x2="54.4185" y2="-0.5" transform="matrix(0.599604 0.800297 -0.799703 0.600396 454.095 334.8)" stroke="#26677E"/>
<line x1="486.5" y1="379" x2="486.5" y2="525" stroke="#26677E"/>
<line x1="105.5" y1="1067" x2="105.5" y2="982" stroke="#26677E"/>
<path d="M96.5291 941.791L130.518 892.796" stroke="#26677E"/>
<line x1="130.5" y1="892" x2="130.5" y2="863" stroke="#26677E"/>
<line x1="93.5" y1="1067" x2="93.5" y2="994" stroke="#26677E"/>
<line y1="-0.5" x2="19.6219" y2="-0.5" transform="matrix(-0.554304 -0.832314 0.831786 -0.555096 95.1696 993.508)" stroke="#26677E"/>
<line x1="82.5" y1="977" x2="82.5" y2="935" stroke="#26677E"/>
<line y1="-0.5" x2="50.6127" y2="-0.5" transform="matrix(0.590967 -0.806695 0.806114 0.59176 84.2931 936.347)" stroke="#26677E"/>
<line x1="113.5" y1="895" x2="113.5" y2="841" stroke="#26677E"/>
<line y1="-0.5" x2="63.5135" y2="-0.5" transform="matrix(-0.68499 -0.728552 0.727847 -0.685739 114.204 841.079)" stroke="#26677E"/>
<line x1="122.5" y1="1067" x2="122.5" y2="968" stroke="#26677E"/>
<line y1="-0.5" x2="43.0232" y2="-0.5" transform="matrix(0.568813 -0.822467 0.821918 0.569607 122.361 966.288)" stroke="#26677E"/>
<line x1="147" y1="930.5" x2="187" y2="930.5" stroke="#26677E"/>
<line y1="-0.5" x2="28.0172" y2="-0.5" transform="matrix(0.485261 -0.87437 0.873945 0.486025 187.62 930.903)" stroke="#26677E"/>
<line x1="458.5" y1="1067" x2="458.5" y2="826" stroke="#26677E"/>
<line y1="-0.5" x2="55.8226" y2="-0.5" transform="matrix(-0.681942 -0.731406 0.730704 -0.682694 459.533 824.748)" stroke="#26677E"/>
<line x1="420.5" y1="783" x2="420.5" y2="693" stroke="#26677E"/>
<line y1="-0.5" x2="57.4032" y2="-0.5" transform="matrix(0.521059 -0.853521 0.853043 0.521841 421.465 694.095)" stroke="#26677E"/>
<line x1="450.5" y1="645" x2="450.5" y2="594" stroke="#26677E"/>
<line x1="671.5" y1="1067" x2="671.5" y2="922" stroke="#26677E"/>
<line y1="-0.5" x2="34.8438" y2="-0.5" transform="matrix(-0.624302 -0.781183 0.780555 -0.625088 671.625 922.737)" stroke="#26677E"/>
<line x1="650" y1="895.5" x2="619" y2="895.5" stroke="#26677E"/>
<line y1="-0.5" x2="53.6068" y2="-0.5" transform="matrix(-0.405789 -0.913967 0.913656 -0.406488 622.681 895.518)" stroke="#26677E"/>
<ellipse cx="841.5" cy="981" rx="6.5" ry="7" fill="#D9D9D9"/>
<circle cx="1436.5" cy="376.5" r="6.5" fill="#D9D9D9"/>
<ellipse cx="1044.5" cy="156" rx="6.5" ry="7" fill="#D9D9D9"/>
<circle cx="1056" cy="397" r="7" fill="#D9D9D9"/>
<ellipse cx="980" cy="357.5" rx="7" ry="6.5" fill="#D9D9D9"/>
<circle cx="850" cy="233" r="7" fill="#D9D9D9"/>
<ellipse cx="700" cy="314.5" rx="7" ry="6.5" fill="#D9D9D9"/>
<circle cx="488.5" cy="529.5" r="6.5" fill="#D9D9D9"/>
<ellipse cx="623.5" cy="281" rx="6.5" ry="7" fill="#D9D9D9"/>
<ellipse cx="276" cy="330.5" rx="7" ry="6.5" fill="#D9D9D9"/>
<circle cx="1241.5" cy="865.5" r="6.5" fill="#D9D9D9"/>
<ellipse cx="736.5" cy="809" rx="6.5" ry="7" fill="#D9D9D9"/>
<circle cx="492.5" cy="651.5" r="6.5" fill="#D9D9D9"/>
<ellipse cx="1004.5" cy="641" rx="6.5" ry="7" fill="#D9D9D9"/>
<circle cx="1229.5" cy="644.5" r="7.5" fill="#D9D9D9"/>
<ellipse cx="955.5" cy="780" rx="7.5" ry="7" fill="#D9D9D9"/>
<ellipse cx="1137.5" cy="559" rx="6.5" ry="7" fill="#D9D9D9"/>
<ellipse cx="382.5" cy="731" rx="6.5" ry="7" fill="#D9D9D9"/>
<line y1="-0.5" x2="13.6046" y2="-0.5" transform="matrix(-0.599604 -0.800297 0.799703 -0.600396 106.046 982.62)" stroke="#26677E"/>
<line x1="96.5" y1="972" x2="96.5" y2="942" stroke="#26677E"/>
<circle cx="202" cy="899" r="7" fill="#D9D9D9"/>
<ellipse cx="67.5" cy="793" rx="6.5" ry="7" fill="#D9D9D9"/>
<ellipse cx="297.5" cy="641" rx="6.5" ry="7" fill="#D9D9D9"/>
<line x1="599.5" y1="847" x2="599.5" y2="793" stroke="#26677E"/>
<ellipse cx="599.5" cy="788" rx="7.5" ry="7" fill="#D9D9D9"/>
</svg>
