<svg width="1789" height="1051" viewBox="0 0 1789 1051" fill="none" xmlns="http://www.w3.org/2000/svg">
<rect width="1789" height="1051" fill="#1E1E1E"/>
<rect width="1789" height="1051" fill="#01030C"/>
<path d="M901.624 424.32H892.744L893.304 421H914.864L914.304 424.32H905.424L901.064 449H897.264L901.624 424.32ZM916.492 449.32C914.305 449.32 912.572 448.787 911.292 447.72C910.012 446.627 909.372 445.173 909.372 443.36C909.372 442.933 909.412 442.48 909.492 442L910.492 436.48C910.918 434.053 911.892 432.16 913.412 430.8C914.958 429.413 916.878 428.72 919.172 428.72H922.452C924.505 428.72 926.145 429.293 927.372 430.44C928.625 431.56 929.252 433.053 929.252 434.92C929.252 435.373 929.212 435.84 929.132 436.32L928.452 440.08H913.572L913.252 442C913.198 442.427 913.172 442.72 913.172 442.88C913.172 443.867 913.465 444.653 914.052 445.24C914.665 445.8 915.505 446.08 916.572 446.08H919.612C920.892 446.08 921.932 445.787 922.732 445.2C923.558 444.587 924.065 443.733 924.252 442.64H927.932C927.558 444.747 926.638 446.387 925.172 447.56C923.705 448.733 921.838 449.32 919.572 449.32H916.492ZM925.252 437.12L925.412 436.36C925.492 435.987 925.532 435.627 925.532 435.28C925.532 434.267 925.238 433.453 924.652 432.84C924.092 432.227 923.332 431.92 922.372 431.92H919.092C917.838 431.92 916.772 432.333 915.892 433.16C915.038 433.96 914.465 435.067 914.172 436.48L914.052 437.12H925.252ZM938.714 449.32C936.58 449.32 934.887 448.787 933.634 447.72C932.407 446.627 931.794 445.16 931.794 443.32C931.794 442.867 931.834 442.387 931.914 441.88L932.914 436.48C933.367 434.027 934.34 432.12 935.834 430.76C937.327 429.4 939.194 428.72 941.434 428.72H944.674C946.727 428.72 948.354 429.213 949.554 430.2C950.754 431.187 951.354 432.52 951.354 434.2C951.354 434.573 951.314 434.987 951.234 435.44H947.554C947.607 435.12 947.634 434.88 947.634 434.72C947.634 433.867 947.354 433.2 946.794 432.72C946.26 432.24 945.514 432 944.554 432H941.354C940.1 432 939.06 432.4 938.234 433.2C937.407 434 936.86 435.133 936.594 436.6L935.674 441.72C935.62 441.96 935.594 442.293 935.594 442.72C935.594 443.733 935.887 444.547 936.474 445.16C937.06 445.747 937.874 446.04 938.914 446.04H942.114C943.287 446.04 944.26 445.667 945.034 444.92C945.834 444.147 946.354 443.08 946.594 441.72H950.274C949.847 444.093 948.9 445.96 947.434 447.32C945.994 448.653 944.207 449.32 942.074 449.32H938.714ZM958.151 421H961.871L960.031 431.56C960.805 430.68 961.658 429.987 962.591 429.48C963.525 428.973 964.445 428.72 965.351 428.72H967.831C969.645 428.72 971.071 429.213 972.111 430.2C973.151 431.187 973.671 432.52 973.671 434.2C973.671 434.653 973.631 435.147 973.551 435.68L971.191 449H967.471L969.831 435.68C969.885 435.253 969.911 434.96 969.911 434.8C969.911 433.947 969.685 433.267 969.231 432.76C968.805 432.253 968.205 432 967.431 432H964.871C963.725 432 962.605 432.44 961.511 433.32C960.418 434.173 959.618 435.293 959.111 436.68L956.951 449H953.231L958.151 421ZM980.072 429.04H983.632L983.112 431.8C983.938 430.813 984.832 430.053 985.792 429.52C986.778 428.987 987.738 428.72 988.672 428.72H991.112C992.898 428.72 994.312 429.213 995.352 430.2C996.392 431.187 996.912 432.52 996.912 434.2C996.912 434.653 996.872 435.147 996.792 435.68L994.432 449H990.712L993.072 435.68C993.125 435.253 993.152 434.947 993.152 434.76C993.152 433.907 992.925 433.24 992.472 432.76C992.045 432.253 991.445 432 990.672 432H988.192C987.045 432 985.925 432.44 984.832 433.32C983.738 434.2 982.938 435.347 982.432 436.76L980.272 449H976.552L980.072 429.04ZM1007.23 449.32C1005.07 449.32 1003.35 448.76 1002.07 447.64C1000.79 446.52 1000.15 445.04 1000.15 443.2C1000.15 442.853 1000.21 442.333 1000.31 441.64L1001.23 436.44C1001.66 434.013 1002.63 432.12 1004.15 430.76C1005.7 429.4 1007.63 428.72 1009.95 428.72H1013.31C1015.53 428.72 1017.27 429.28 1018.55 430.4C1019.83 431.493 1020.47 432.987 1020.47 434.88C1020.47 435.173 1020.42 435.693 1020.31 436.44L1019.39 441.64C1018.97 444.067 1017.98 445.96 1016.43 447.32C1014.89 448.653 1012.94 449.32 1010.59 449.32H1007.23ZM1010.67 446.04C1011.95 446.04 1013.05 445.627 1013.95 444.8C1014.89 443.973 1015.47 442.867 1015.71 441.48L1016.55 436.56C1016.61 436.32 1016.63 435.973 1016.63 435.52C1016.63 434.427 1016.33 433.573 1015.71 432.96C1015.1 432.32 1014.26 432 1013.19 432H1009.87C1008.57 432 1007.47 432.4 1006.59 433.2C1005.74 434 1005.18 435.12 1004.91 436.56L1004.07 441.48C1004.02 441.72 1003.99 442.08 1003.99 442.56C1003.99 443.627 1004.29 444.48 1004.87 445.12C1005.49 445.733 1006.31 446.04 1007.35 446.04H1010.67ZM1028.88 449C1027.15 449 1025.85 448.693 1025 448.08C1024.17 447.467 1023.76 446.453 1023.76 445.04C1023.76 444.453 1023.81 443.88 1023.92 443.32L1027.84 421H1031.56L1027.68 443.2C1027.63 443.44 1027.6 443.747 1027.6 444.12C1027.6 444.707 1027.75 445.133 1028.04 445.4C1028.36 445.64 1028.88 445.76 1029.6 445.76H1031.2L1030.64 449H1028.88ZM1041.45 449.32C1039.29 449.32 1037.57 448.76 1036.29 447.64C1035.01 446.52 1034.37 445.04 1034.37 443.2C1034.37 442.853 1034.43 442.333 1034.53 441.64L1035.45 436.44C1035.88 434.013 1036.85 432.12 1038.37 430.76C1039.92 429.4 1041.85 428.72 1044.17 428.72H1047.53C1049.75 428.72 1051.49 429.28 1052.77 430.4C1054.05 431.493 1054.69 432.987 1054.69 434.88C1054.69 435.173 1054.64 435.693 1054.53 436.44L1053.61 441.64C1053.19 444.067 1052.2 445.96 1050.65 447.32C1049.11 448.653 1047.16 449.32 1044.81 449.32H1041.45ZM1044.89 446.04C1046.17 446.04 1047.27 445.627 1048.17 444.8C1049.11 443.973 1049.69 442.867 1049.93 441.48L1050.77 436.56C1050.83 436.32 1050.85 435.973 1050.85 435.52C1050.85 434.427 1050.55 433.573 1049.93 432.96C1049.32 432.32 1048.48 432 1047.41 432H1044.09C1042.79 432 1041.69 432.4 1040.81 433.2C1039.96 434 1039.4 435.12 1039.13 436.56L1038.29 441.48C1038.24 441.72 1038.21 442.08 1038.21 442.56C1038.21 443.627 1038.51 444.48 1039.09 445.12C1039.71 445.733 1040.53 446.04 1041.57 446.04H1044.89ZM1063.1 457.12C1061.18 457.12 1059.64 456.653 1058.5 455.72C1057.38 454.787 1056.82 453.56 1056.82 452.04L1056.86 451.48H1060.58C1060.52 452.2 1060.74 452.787 1061.22 453.24C1061.7 453.693 1062.35 453.92 1063.18 453.92H1066.58C1067.78 453.92 1068.79 453.493 1069.62 452.64C1070.44 451.813 1070.99 450.667 1071.26 449.2L1071.74 446.52C1071.02 447.267 1070.23 447.867 1069.38 448.32C1068.55 448.747 1067.75 448.96 1066.98 448.96H1064.14C1062.11 448.96 1060.5 448.413 1059.3 447.32C1058.12 446.2 1057.54 444.707 1057.54 442.84C1057.54 442.52 1057.59 441.987 1057.7 441.24L1058.5 436.76C1058.92 434.307 1059.91 432.36 1061.46 430.92C1063 429.453 1064.91 428.72 1067.18 428.72H1069.82C1070.83 428.72 1071.78 428.947 1072.66 429.4C1073.54 429.853 1074.19 430.453 1074.62 431.2L1075.02 429.04H1078.54L1074.98 449.2C1074.55 451.68 1073.59 453.613 1072.1 455C1070.6 456.413 1068.74 457.12 1066.5 457.12H1063.1ZM1067.26 445.72C1068.48 445.72 1069.62 445.227 1070.66 444.24C1071.72 443.253 1072.44 441.987 1072.82 440.44L1073.54 436.24C1073.64 434.987 1073.36 433.973 1072.7 433.2C1072.03 432.4 1071.14 432 1070.02 432H1067.3C1066.02 432 1064.91 432.453 1063.98 433.36C1063.04 434.24 1062.44 435.413 1062.18 436.88L1061.46 441.12C1061.4 441.36 1061.38 441.72 1061.38 442.2C1061.38 443.293 1061.64 444.16 1062.18 444.8C1062.74 445.413 1063.5 445.72 1064.46 445.72H1067.26ZM1086.53 457.12C1084.61 457.12 1083.08 456.653 1081.93 455.72C1080.81 454.787 1080.25 453.56 1080.25 452.04L1080.29 451.48H1084.01C1083.96 452.2 1084.17 452.787 1084.65 453.24C1085.13 453.693 1085.79 453.92 1086.61 453.92H1089.77C1091 453.92 1092.01 453.507 1092.81 452.68C1093.64 451.853 1094.19 450.693 1094.45 449.2L1095.05 445.88C1094.33 446.787 1093.48 447.533 1092.49 448.12C1091.53 448.68 1090.65 448.96 1089.85 448.96H1087.37C1085.53 448.96 1084.09 448.467 1083.05 447.48C1082.01 446.467 1081.49 445.107 1081.49 443.4C1081.49 443.107 1081.55 442.587 1081.65 441.84L1083.89 429.04H1087.61L1085.37 441.92C1085.32 442.133 1085.29 442.453 1085.29 442.88C1085.29 443.733 1085.51 444.413 1085.93 444.92C1086.39 445.427 1087 445.68 1087.77 445.68H1090.17C1091.32 445.68 1092.41 445.24 1093.45 444.36C1094.52 443.48 1095.35 442.32 1095.93 440.88L1098.01 429.04H1101.77L1098.21 449.2C1097.76 451.68 1096.79 453.613 1095.29 455C1093.8 456.413 1091.93 457.12 1089.69 457.12H1086.53Z" fill="#005160"/>
<circle cx="581.5" cy="582.5" r="5.5" fill="#26677E"/>
<circle cx="302.5" cy="773.5" r="5.5" fill="#26677E"/>
<circle cx="683.5" cy="800.5" r="5.5" fill="#26677E"/>
<circle cx="998.5" cy="853.5" r="5.5" fill="#26677E"/>
<circle cx="1334.5" cy="819.5" r="6.5" fill="#26677E"/>
<circle cx="1295.5" cy="576.5" r="5.5" fill="#26677E"/>
<circle cx="1164.5" cy="681.5" r="5.5" fill="#26677E"/>
<circle cx="1129.5" cy="449.5" r="5.5" fill="#26677E"/>
<circle cx="877.5" cy="247.5" r="5.5" fill="#26677E"/>
<line x1="422.5" x2="422.5" y2="457" stroke="#26677E"/>
<line x1="457.5" y1="499" x2="457.5" y2="663" stroke="#26677E"/>
<line x1="431.5" x2="431.5" y2="208" stroke="#26677E"/>
<line y1="-0.5" x2="55.2726" y2="-0.5" transform="matrix(0.63239 0.77465 -0.777573 0.628793 422 457)" stroke="#26677E"/>
<line y1="-0.5" x2="51.5007" y2="-0.5" transform="matrix(0.626498 0.779423 -0.782309 0.622891 431 208)" stroke="#26677E"/>
<line x1="463.5" y1="247" x2="463.5" y2="293" stroke="#26677E"/>
<circle cx="463.5" cy="298.5" r="5.5" fill="#26677E"/>
<circle cx="347.5" cy="253.5" r="5.5" fill="#26677E"/>
<circle cx="457.5" cy="668.5" r="5.5" fill="#26677E"/>
<circle cx="666.5" cy="232.5" r="5.5" fill="#26677E"/>
<circle cx="626.5" cy="300.5" r="5.5" fill="#26677E"/>
<circle cx="971.5" cy="756.5" r="5.5" fill="#26677E"/>
<circle cx="506.5" cy="422.5" r="5.5" fill="#26677E"/>
<line x1="1789" y1="388.458" x2="1488" y2="387.432" stroke="#26677E"/>
<line y1="-0.5" x2="28.9883" y2="-0.5" transform="matrix(-0.556519 0.830835 -0.83326 -0.552882 1488.45 387.539)" stroke="#26677E"/>
<line x1="1474" y1="412" x2="1375" y2="412" stroke="#26677E"/>
<line x1="1789" y1="407.25" x2="1583" y2="407.5" stroke="#26677E"/>
<line y1="-0.5" x2="28.5055" y2="-0.5" transform="matrix(-0.660269 0.751029 -0.754119 -0.656737 1582.82 407)" stroke="#26677E"/>
<line x1="1565" y1="428.5" x2="1359" y2="428.5" stroke="#26677E"/>
<line x1="1789" y1="415.25" x2="1586" y2="414.496" stroke="#26677E"/>
<line y1="-0.5" x2="31.7232" y2="-0.5" transform="matrix(-0.650848 0.759208 -0.762244 -0.64729 1586.65 414)" stroke="#26677E"/>
<line x1="1567" y1="438.5" x2="1376" y2="438.5" stroke="#26677E"/>
<line x1="1789" y1="426.25" x2="1589" y2="425.496" stroke="#26677E"/>
<line y1="-0.5" x2="32.2916" y2="-0.5" transform="matrix(-0.66612 0.745845 -0.748969 -0.662605 1589.51 425)" stroke="#26677E"/>
<line x1="1569" y1="449.5" x2="1378" y2="449.5" stroke="#26677E"/>
<line y1="-0.5" x2="84.2825" y2="-0.5" transform="matrix(-0.861347 -0.508017 0.51159 -0.85923 1375.52 411.624)" stroke="#26677E"/>
<line x1="1302.5" y1="370" x2="1302.5" y2="316" stroke="#26677E"/>
<circle cx="1302.5" cy="310.5" r="5.5" fill="#26677E"/>
<path d="M1360.22 429.141L1293 389" stroke="#26677E"/>
<line x1="1294" y1="389.5" x2="1190" y2="389.5" stroke="#26677E"/>
<line y1="-0.5" x2="31.4538" y2="-0.5" transform="matrix(-0.940311 0.340316 -0.343174 -0.939272 1376.58 438)" stroke="#26677E"/>
<line x1="1348" y1="449.5" x2="1135" y2="449.5" stroke="#26677E"/>
<line y1="-0.5" x2="31.4538" y2="-0.5" transform="matrix(-0.940311 0.340316 -0.343174 -0.939272 1378.58 449)" stroke="#26677E"/>
<line x1="1350" y1="460.5" x2="1314" y2="460.5" stroke="#26677E"/>
<line y1="-0.5" x2="58.0823" y2="-0.5" transform="matrix(-0.83326 0.552882 -0.556519 -0.830835 1314.4 460)" stroke="#26677E"/>
<line x1="1266.5" y1="492" x2="1266.5" y2="545" stroke="#26677E"/>
<line x1="1357.5" x2="1357.5" y2="316" stroke="#26677E"/>
<line y1="-0.5" x2="77.7811" y2="-0.5" transform="matrix(0.691366 0.722505 -0.725767 0.687941 1356.7 315.285)" stroke="#26677E"/>
<line x1="1410" y1="370.5" x2="1552" y2="370.5" stroke="#26677E"/>
<line x1="1375.5" x2="1375.5" y2="300" stroke="#26677E"/>
<line y1="-0.5" x2="70.1966" y2="-0.5" transform="matrix(0.689459 0.724325 -0.727576 0.686027 1375 300)" stroke="#26677E"/>
<line x1="1423" y1="350.5" x2="1497" y2="350.5" stroke="#26677E"/>
<line y1="-0.5" x2="18.0197" y2="-0.5" transform="matrix(0.895271 0.445521 -0.448909 0.893577 1496 351)" stroke="#26677E"/>
<path d="M1511 358H1608" stroke="#26677E"/>
<line y1="-0.5" x2="99.027" y2="-0.5" transform="matrix(-0.00664957 0.999978 -0.999978 -0.00658689 824.658 0)" stroke="#26677E"/>
<line y1="-0.5" x2="39.868" y2="-0.5" transform="matrix(0.674415 0.738352 -0.741523 0.670927 824 99)" stroke="#26677E"/>
<line x1="850.5" y1="127" x2="850.5" y2="227" stroke="#26677E"/>
<line x1="832.5" x2="832.5" y2="93" stroke="#26677E"/>
<line x1="832.373" y1="92.667" x2="857.373" y2="120.667" stroke="#26677E"/>
<line y1="-0.5" x2="17.1848" y2="-0.5" transform="matrix(0.782309 -0.622891 0.626498 0.779423 857 120.704)" stroke="#26677E"/>
<line x1="870.5" y1="110" x2="870.5" stroke="#26677E"/>
<line x1="875.5" x2="875.5" y2="115" stroke="#26677E"/>
<line y1="-0.5" x2="20.9593" y2="-0.5" transform="matrix(-0.769709 0.638394 -0.641972 -0.766728 875.409 114.581)" stroke="#26677E"/>
<line x1="859.5" y1="128" x2="859.5" y2="172" stroke="#26677E"/>
<line x1="881.5" x2="881.5" y2="104" stroke="#26677E"/>
<line y1="-0.5" x2="34.9393" y2="-0.5" transform="matrix(0.538686 0.842507 -0.84481 0.535067 859 172)" stroke="#26677E"/>
<line x1="877.5" y1="200" x2="877.5" y2="243" stroke="#26677E"/>
<line y1="-0.5" x2="24.7217" y2="-0.5" transform="matrix(0.652567 0.757731 -0.760777 0.649014 880.786 103.877)" stroke="#26677E"/>
<line x1="897.5" y1="122.5" x2="897.5" y2="175.5" stroke="#26677E"/>
<line x1="890.5" x2="890.5" y2="93" stroke="#26677E"/>
<line y1="-0.5" x2="40.2096" y2="-0.5" transform="matrix(-0.601818 0.798633 -0.801361 -0.598181 850.199 226)" stroke="#26677E"/>
<line x1="826.5" y1="258" x2="826.5" y2="300" stroke="#26677E"/>
<line y1="-0.5" x2="66.4045" y2="-0.5" transform="matrix(0.68834 0.725388 -0.728634 0.684903 890 93)" stroke="#26677E"/>
<line x1="935.5" y1="140" x2="935.5" y2="221" stroke="#26677E"/>
<line y1="-0.5" x2="40.2096" y2="-0.5" transform="matrix(-0.601818 0.798633 -0.801361 -0.598181 935.199 220)" stroke="#26677E"/>
<line x1="911.5" y1="252" x2="911.5" y2="282" stroke="#26677E"/>
<line x1="1281.5" x2="1281.5" y2="143" stroke="#26677E"/>
<line y1="-0.5" x2="60.2184" y2="-0.5" transform="matrix(-0.535801 0.844344 -0.846627 -0.532186 1281.41 141.342)" stroke="#26677E"/>
<line x1="1249" y1="192" x2="1136" y2="192" stroke="#26677E"/>
<line y1="-0.5" x2="49.4434" y2="-0.5" transform="matrix(-0.652567 0.757731 -0.760777 -0.649014 1136.22 192.187)" stroke="#26677E"/>
<line x1="1271.5" x2="1271.5" y2="120" stroke="#26677E"/>
<line y1="-0.5" x2="66.1808" y2="-0.5" transform="matrix(-0.528157 0.849147 -0.851377 -0.524553 1270.66 119.934)" stroke="#26677E"/>
<line x1="1236" y1="176" x2="1123" y2="176" stroke="#26677E"/>
<line y1="-0.5" x2="66.603" y2="-0.5" transform="matrix(-0.645919 0.763406 -0.766411 -0.64235 1122.77 176.13)" stroke="#26677E"/>
<line x1="1104.5" y1="229.5" x2="1104.5" y2="323.5" stroke="#26677E"/>
<line x1="1080" y1="227" x2="980" y2="227" stroke="#26677E"/>
<line x1="1289.5" x2="1289.5" y2="174" stroke="#26677E"/>
<line y1="-0.5" x2="64.6191" y2="-0.5" transform="matrix(0.748969 0.662605 -0.66612 0.745845 1289.48 173.454)" stroke="#26677E"/>
<line x1="1338.5" y1="215.5" x2="1338.5" y2="268.5" stroke="#26677E"/>
<line x1="970.5" x2="970.5" y2="97" stroke="#26677E"/>
<line y1="-0.5" x2="67.6395" y2="-0.5" transform="matrix(0.556519 0.830835 -0.83326 0.552882 970 97)" stroke="#26677E"/>
<line x1="1008" y1="152.5" x2="1167" y2="152.5" stroke="#26677E"/>
<line x1="1124.5" y1="1051" x2="1124.5" y2="850" stroke="#26677E"/>
<line y1="-0.5" x2="73.5863" y2="-0.5" transform="matrix(0.548083 -0.836424 0.838791 0.544454 1125 850.549)" stroke="#26677E"/>
<line x1="1164.5" y1="789" x2="1164.5" y2="687" stroke="#26677E"/>
<line x1="1111.5" y1="1051" x2="1111.5" y2="831" stroke="#26677E"/>
<line y1="-0.5" x2="43.6576" y2="-0.5" transform="matrix(-0.677462 -0.735558 0.738746 -0.673984 1111.58 831.113)" stroke="#26677E"/>
<line x1="1081.5" y1="800" x2="1081.5" y2="772" stroke="#26677E"/>
<line x1="845.5" y1="1051" x2="845.5" y2="978" stroke="#26677E"/>
<line x1="850.5" y1="1051" x2="850.5" y2="979" stroke="#26677E"/>
<line x1="896.5" y1="1051" x2="896.5" y2="947" stroke="#26677E"/>
<line x1="939.5" y1="1051" x2="939.5" y2="855" stroke="#26677E"/>
<line x1="981.5" y1="1051" x2="981.5" y2="936" stroke="#26677E"/>
<line x1="969.5" y1="1051" x2="969.5" y2="970" stroke="#26677E"/>
<line x1="1101.5" y1="1051" x2="1101.5" y2="955" stroke="#26677E"/>
<line x1="1055.5" y1="1051" x2="1055.5" y2="936" stroke="#26677E"/>
<line x1="1046.5" y1="1051" x2="1046.5" y2="963" stroke="#26677E"/>
<line x1="1789" y1="784" x2="1446" y2="784" stroke="#26677E"/>
<line x1="1789" y1="802" x2="1599" y2="802.497" stroke="#26677E"/>
<line x1="1789" y1="685.5" x2="1328" y2="685" stroke="#26677E"/>
<line x1="1377.5" y1="1051" x2="1377.5" y2="879" stroke="#26677E"/>
<line x1="1343.5" y1="1051" x2="1343.5" y2="966" stroke="#26677E"/>
<line y1="-0.5" x2="81.5915" y2="-0.5" transform="matrix(-0.724986 -0.688763 0.692185 -0.72172 1329.15 685.197)" stroke="#26677E"/>
<line x1="1270" y1="629.5" x2="1136" y2="629.5" stroke="#26677E"/>
<line x1="1789" y1="613.25" x2="1474" y2="613.25" stroke="#26677E"/>
<line x1="1789" y1="546.25" x2="1457" y2="545.493" stroke="#26677E"/>
<line y1="-0.5" x2="63.3517" y2="-0.5" transform="matrix(-0.806394 -0.591378 0.595019 -0.803711 1458.09 545.465)" stroke="#26677E"/>
<line x1="1407" y1="508.5" x2="1361" y2="508.5" stroke="#26677E"/>
<line y1="-0.5" x2="54.4126" y2="-0.5" transform="matrix(-0.938872 0.344266 -0.347149 -0.93781 1474.09 613)" stroke="#26677E"/>
<line x1="1424" y1="632.5" x2="1376" y2="632.5" stroke="#26677E"/>
<line x1="1789" y1="605.25" x2="1434" y2="605.25" stroke="#26677E"/>
<line y1="-0.5" x2="45.6978" y2="-0.5" transform="matrix(-0.764892 -0.644159 0.647724 -0.761875 1434.95 605.437)" stroke="#26677E"/>
<line x1="1400" y1="576.5" x2="1301" y2="576.5" stroke="#26677E"/>
<line x1="604.5" x2="604.5" y2="273" stroke="#26677E"/>
<line x1="604.238" y1="272.161" x2="623.394" y2="296.693" stroke="#26677E"/>
<line x1="1253.5" y1="1051" x2="1253.5" y2="843" stroke="#26677E"/>
<line x1="578.5" y1="1051" x2="579.518" y2="820.998" stroke="#26677E"/>
<line x1="580.159" y1="821.969" x2="523.629" y2="759.335" stroke="#26677E"/>
<line x1="523.5" y1="760" x2="523.5" y2="719" stroke="#26677E"/>
<line y1="677.5" x2="299" y2="677.5" stroke="#26677E"/>
<line y1="-0.5" x2="81.5915" y2="-0.5" transform="matrix(0.724986 0.688763 -0.692185 0.72172 298 678)" stroke="#26677E"/>
<line x1="357" y1="733.5" x2="428" y2="733.5" stroke="#26677E"/>
<line y1="-0.5" x2="104.45" y2="-0.5" transform="matrix(-0.669296 -0.742996 0.746138 -0.665791 1446.91 784.605)" stroke="#26677E"/>
<line x1="1377" y1="707.5" x2="1273" y2="707.5" stroke="#26677E"/>
<line y1="-0.5" x2="87.6157" y2="-0.5" transform="matrix(-0.767202 -0.641405 0.644977 -0.764202 1254.22 843.197)" stroke="#26677E"/>
<line x1="1186.5" y1="788" x2="1186.5" y2="721" stroke="#26677E"/>
<line x1="648.5" y1="1051" x2="648.5" y2="854" stroke="#26677E"/>
<line y1="-0.5" x2="42.3774" y2="-0.5" transform="matrix(0.571032 -0.820928 0.823451 0.567388 649 854.789)" stroke="#26677E"/>
<line x1="672.5" y1="820" x2="672.5" y2="768" stroke="#26677E"/>
<line x1="745.5" y1="1051" x2="745.5" y2="947" stroke="#26677E"/>
<line y1="-0.5" x2="110.013" y2="-0.5" transform="matrix(-0.56213 -0.827049 0.829512 -0.558489 745.842 946.986)" stroke="#26677E"/>
<line x1="681.5" y1="906" x2="681.5" y2="969" stroke="#26677E"/>
<line x1="657.5" y1="1051" x2="657.5" y2="1000" stroke="#26677E"/>
<line y1="-0.5" x2="40.2096" y2="-0.5" transform="matrix(0.601818 -0.798633 0.801361 0.598181 658 1001.11)" stroke="#26677E"/>
<line x1="683.5" y1="857" x2="683.5" y2="806" stroke="#26677E"/>
<line x1="673.416" y1="861.723" x2="735.88" y2="955.681" stroke="#26677E"/>
<path d="M735.5 955V1051" stroke="#26677E"/>
<line y1="-0.5" x2="31.2472" y2="-0.5" transform="matrix(-0.516288 -0.856415 0.858565 -0.512705 846.133 978.761)" stroke="#26677E"/>
<line y1="-0.5" x2="31.2472" y2="-0.5" transform="matrix(-0.516288 -0.856415 0.858565 -0.512705 851.133 979.761)" stroke="#26677E"/>
<line x1="834.5" y1="954" x2="834.5" y2="893" stroke="#26677E"/>
<line y1="-0.5" x2="49.8603" y2="-0.5" transform="matrix(0.593184 -0.805067 0.807737 0.589543 835 894.141)" stroke="#26677E"/>
<line x1="829.5" y1="953" x2="829.5" y2="916" stroke="#26677E"/>
<line x1="864.5" y1="854" x2="864.5" y2="803" stroke="#26677E"/>
<line y1="-0.5" x2="57.9767" y2="-0.5" transform="matrix(0.556519 -0.830835 0.83326 0.552882 940 856.169)" stroke="#26677E"/>
<line x1="971.5" y1="808" x2="971.5" y2="762" stroke="#26677E"/>
<line y1="-0.5" x2="40.2096" y2="-0.5" transform="matrix(0.601818 -0.798633 0.801361 0.598181 1056 937.113)" stroke="#26677E"/>
<line y1="-0.5" x2="76.2128" y2="-0.5" transform="matrix(-0.635033 -0.772485 0.775424 -0.631441 1047.4 962.873)" stroke="#26677E"/>
<line x1="1079.5" y1="905" x2="1079.5" y2="837" stroke="#26677E"/>
<line y1="-0.5" x2="43.6755" y2="-0.5" transform="matrix(-0.738746 -0.673984 0.677462 -0.735558 1080.27 837.437)" stroke="#26677E"/>
<line x1="1047.5" y1="809" x2="1047.5" y2="787" stroke="#26677E"/>
<line x1="998.5" y1="905" x2="998.5" y2="859" stroke="#26677E"/>
<line x1="529.5" x2="529.5" y2="156" stroke="#26677E"/>
<line y1="-0.5" x2="65.433" y2="-0.5" transform="matrix(-0.575285 0.817953 -0.820505 -0.57164 529.643 155)" stroke="#26677E"/>
<line x1="492.5" y1="208" x2="492.5" y2="273" stroke="#26677E"/>
<line x1="787.5" x2="787.5" y2="76" stroke="#26677E"/>
<line y1="-0.5" x2="87.3152" y2="-0.5" transform="matrix(-0.677462 0.735558 -0.738746 -0.673984 787.153 75)" stroke="#26677E"/>
<line x1="728.5" y1="139" x2="728.5" y2="204" stroke="#26677E"/>
<line x1="752.5" x2="752.5" y2="76" stroke="#26677E"/>
<line y1="-0.5" x2="73.9888" y2="-0.5" transform="matrix(-0.690462 0.723369 -0.726626 -0.687033 752.086 75)" stroke="#26677E"/>
<line x1="701.5" y1="128" x2="701.5" y2="189" stroke="#26677E"/>
<line y1="-0.5" x2="46.8708" y2="-0.5" transform="matrix(0.516288 0.856415 -0.858565 0.512705 728 204)" stroke="#26677E"/>
<line x1="752.5" y1="243" x2="752.5" y2="266" stroke="#26677E"/>
<line y1="-0.5" x2="51.5007" y2="-0.5" transform="matrix(-0.626498 0.779423 -0.782309 -0.622891 701.265 188)" stroke="#26677E"/>
<line x1="616.5" x2="616.5" y2="146" stroke="#26677E"/>
<line y1="-0.5" x2="53.9058" y2="-0.5" transform="matrix(0.448909 0.893577 -0.895271 0.445521 616 146)" stroke="#26677E"/>
<line x1="640.5" y1="193" x2="640.5" y2="267" stroke="#26677E"/>
<line y1="-0.5" x2="51.2385" y2="-0.5" transform="matrix(0.68218 0.731185 -0.734398 0.678719 640 267)" stroke="#26677E"/>
<line x1="455.5" y1="1051" x2="455.5" y2="877" stroke="#26677E"/>
<line y1="-0.5" x2="116.199" y2="-0.5" transform="matrix(-0.439647 -0.898171 0.899804 -0.436295 456.086 877.366)" stroke="#26677E"/>
<line x1="405" y1="773.5" x2="308" y2="773.5" stroke="#26677E"/>
<line x1="297" y1="790.5" x2="378" y2="790.5" stroke="#26677E"/>
<line x1="420.5" y1="1051" x2="420.5" y2="886" stroke="#26677E"/>
<line y1="-0.5" x2="105.507" y2="-0.5" transform="matrix(-0.407746 -0.913095 0.914523 -0.404534 421.02 886.338)" stroke="#26677E"/>
<line x1="462.5" y1="1051" x2="462.5" y2="944" stroke="#26677E"/>
<line y1="-0.5" x2="57.5167" y2="-0.5" transform="matrix(0.467475 -0.884006 0.885824 0.464021 463 944.845)" stroke="#26677E"/>
<line x1="489.5" y1="894" x2="489.5" y2="786" stroke="#26677E"/>
<line y1="476.5" x2="325" y2="476.5" stroke="#26677E"/>
<line y1="-0.5" x2="109.534" y2="-0.5" transform="matrix(0.810058 -0.58635 0.589993 0.807408 325 477.226)" stroke="#26677E"/>
<line x1="413.5" y1="413" x2="413.5" y2="327" stroke="#26677E"/>
<line x1="1549.5" y1="1051" x2="1549.5" y2="886" stroke="#26677E"/>
<line y1="-0.5" x2="124.386" y2="-0.5" transform="matrix(-0.843037 -0.537856 0.541478 -0.840715 1549.86 885.901)" stroke="#26677E"/>
<path d="M1445 819.5H1337" stroke="#26677E"/>
<line y1="-0.5" x2="64.4897" y2="-0.5" transform="matrix(0.708779 -0.705431 0.708779 0.705431 1378 880.493)" stroke="#26677E"/>
<line x1="1423" y1="834.5" x2="1443" y2="834.5" stroke="#26677E"/>
<line y1="-0.5" x2="77.4431" y2="-0.5" transform="matrix(0.83326 0.552882 -0.556519 0.830835 1442 835)" stroke="#26677E"/>
<line y1="-0.5" x2="37.2219" y2="-0.5" transform="matrix(0.505652 -0.862737 0.864814 0.502092 1344 967.113)" stroke="#26677E"/>
<line x1="1362.5" y1="935" x2="1362.5" y2="857" stroke="#26677E"/>
<line y1="-0.5" x2="24.0263" y2="-0.5" transform="matrix(-0.895271 -0.445521 0.448909 -0.893577 1599.51 801.704)" stroke="#26677E"/>
<line x1="1579" y1="791.5" x2="1514" y2="791.5" stroke="#26677E"/>
<line y1="525.5" x2="392" y2="525.5" stroke="#26677E"/>
<line y1="-0.5" x2="55.0476" y2="-0.5" transform="matrix(0.732665 0.68059 -0.684043 0.729441 391 526)" stroke="#26677E"/>
<line x1="431.5" y1="562" x2="431.5" y2="627" stroke="#26677E"/>
<line y1="-0.5" x2="15.6236" y2="-0.5" transform="matrix(0.516288 -0.856415 0.858565 0.512705 982 936.38)" stroke="#26677E"/>
<line x1="989.5" y1="923" x2="989.5" y2="884" stroke="#26677E"/>
<line y1="-0.5" x2="82.572" y2="-0.5" transform="matrix(-0.586127 -0.810219 0.812843 -0.582483 673.398 768.901)" stroke="#26677E"/>
<line x1="289.5" x2="289.5" y2="126" stroke="#26677E"/>
<line y1="-0.5" x2="48.3139" y2="-0.5" transform="matrix(0.556519 0.830835 -0.83326 0.552882 289 126)" stroke="#26677E"/>
<line x1="316.5" y1="165" x2="316.5" y2="214" stroke="#26677E"/>
<line x1="273.5" x2="273.5" y2="81" stroke="#26677E"/>
<line y1="-0.5" x2="25.2796" y2="-0.5" transform="matrix(-0.531804 0.846867 -0.849123 -0.528195 273.444 80)" stroke="#26677E"/>
<line x1="260.5" y1="101" x2="260.5" y2="185" stroke="#26677E"/>
<path d="M316.554 213.535L344 250" stroke="#26677E"/>
<line y1="531.5" x2="381" y2="531.5" stroke="#26677E"/>
<line y1="-0.5" x2="55.0476" y2="-0.5" transform="matrix(0.732665 0.68059 -0.684043 0.729441 380 532)" stroke="#26677E"/>
<line x1="420.5" y1="568" x2="420.5" y2="663" stroke="#26677E"/>
<line y1="-0.5" x2="32.7165" y2="-0.5" transform="matrix(0.575285 0.817953 -0.820505 0.57164 420 663)" stroke="#26677E"/>
<line x1="624.5" y1="703" x2="624.5" y2="657" stroke="#26677E"/>
<line x1="543.5" x2="543.5" y2="283" stroke="#26677E"/>
<line y1="-0.5" x2="63.2629" y2="-0.5" transform="matrix(-0.595019 0.803711 -0.806394 -0.591378 543.643 282)" stroke="#26677E"/>
<line x1="506.5" y1="333" x2="506.5" y2="417" stroke="#26677E"/>
<line x1="555.5" x2="555.5" y2="91" stroke="#26677E"/>
<line y1="-0.5" x2="85.5565" y2="-0.5" transform="matrix(0.345694 0.938347 -0.939401 0.34282 555 91)" stroke="#26677E"/>
<line x1="584.5" y1="170" x2="584.5" y2="327" stroke="#26677E"/>
<line y1="-0.5" x2="53.6128" y2="-0.5" transform="matrix(0.601818 0.798633 -0.801361 0.598181 584 327)" stroke="#26677E"/>
<line x1="616.5" y1="369" x2="616.5" y2="512" stroke="#26677E"/>
<line x1="240.5" y1="1051" x2="240.5" y2="967" stroke="#26677E"/>
<path d="M232 927.169L265.609 879" stroke="#26677E"/>
<line x1="265.5" y1="879" x2="265.5" y2="850" stroke="#26677E"/>
<line x1="228.5" y1="1051" x2="228.5" y2="979" stroke="#26677E"/>
<line y1="-0.5" x2="19.3256" y2="-0.5" transform="matrix(-0.556519 -0.830835 0.83326 -0.552882 228.755 979.057)" stroke="#26677E"/>
<line x1="217.5" y1="964" x2="217.5" y2="922" stroke="#26677E"/>
<line y1="-0.5" x2="49.8603" y2="-0.5" transform="matrix(0.593184 -0.805067 0.807737 0.589543 218 923.141)" stroke="#26677E"/>
<line x1="247.5" y1="883" x2="247.5" y2="830" stroke="#26677E"/>
<line y1="-0.5" x2="62.6127" y2="-0.5" transform="matrix(-0.687084 -0.726578 0.729817 -0.683642 248.02 830.493)" stroke="#26677E"/>
<line x1="257.5" y1="1051" x2="257.5" y2="954" stroke="#26677E"/>
<line y1="-0.5" x2="42.3774" y2="-0.5" transform="matrix(0.571032 -0.820928 0.823451 0.567388 258 954.789)" stroke="#26677E"/>
<line x1="281" y1="919.5" x2="321" y2="919.5" stroke="#26677E"/>
<line y1="-0.5" x2="27.5826" y2="-0.5" transform="matrix(0.487401 -0.873178 0.87513 0.483887 321 920.084)" stroke="#26677E"/>
<line x1="589.5" y1="1051" x2="589.5" y2="814" stroke="#26677E"/>
<line y1="-0.5" x2="55.0296" y2="-0.5" transform="matrix(-0.684043 -0.729441 0.732665 -0.68059 589.643 814.141)" stroke="#26677E"/>
<line x1="551.5" y1="775" x2="551.5" y2="686" stroke="#26677E"/>
<line y1="-0.5" x2="56.5245" y2="-0.5" transform="matrix(0.523248 -0.85218 0.854377 0.519653 552 686.169)" stroke="#26677E"/>
<line x1="581.5" y1="638" x2="581.5" y2="588" stroke="#26677E"/>
<line x1="799.5" y1="1051" x2="799.5" y2="908" stroke="#26677E"/>
<line y1="-0.5" x2="34.3338" y2="-0.5" transform="matrix(-0.626498 -0.779423 0.782309 -0.622891 800.51 907.761)" stroke="#26677E"/>
<line x1="779" y1="881.5" x2="748" y2="881.5" stroke="#26677E"/>
<line y1="-0.5" x2="52.7536" y2="-0.5" transform="matrix(-0.407746 -0.913095 0.914523 -0.404534 748.51 882.169)" stroke="#26677E"/>
<circle cx="969.5" cy="964.5" r="5.5" fill="#D9D9D9" fill-opacity="0.75"/>
<circle cx="1557.5" cy="370.5" r="5.5" fill="#D9D9D9" fill-opacity="0.75"/>
<circle cx="1172.5" cy="152.5" r="5.5" fill="#D9D9D9" fill-opacity="0.75"/>
<circle cx="1184.5" cy="389.5" r="5.5" fill="#D9D9D9" fill-opacity="0.75"/>
<circle cx="1104.5" cy="328.5" r="5.5" fill="#26677E"/>
<circle cx="974.5" cy="227.5" r="5.5" fill="#D9D9D9" fill-opacity="0.75"/>
<circle cx="826.5" cy="305.5" r="5.5" fill="#D9D9D9" fill-opacity="0.75"/>
<circle cx="616.5" cy="517.5" r="5.5" fill="#D9D9D9" fill-opacity="0.75"/>
<circle cx="752.5" cy="271.5" r="5.5" fill="#D9D9D9" fill-opacity="0.75"/>
<circle cx="413.5" cy="321.5" r="5.5" fill="#D9D9D9" fill-opacity="0.75"/>
<circle cx="1362.5" cy="851.5" r="6.5" fill="#D9D9D9" fill-opacity="0.75"/>
<circle cx="864.5" cy="797.5" r="5.5" fill="#D9D9D9" fill-opacity="0.75"/>
<circle cx="624.5" cy="651.5" r="5.5" fill="#D9D9D9" fill-opacity="0.75"/>
<circle cx="1130.5" cy="629.5" r="5.5" fill="#D9D9D9" fill-opacity="0.75"/>
<circle cx="1370.5" cy="632.5" r="5.5" fill="#D9D9D9" fill-opacity="0.75"/>
<circle cx="1081.5" cy="766.5" r="5.5" fill="#D9D9D9" fill-opacity="0.75"/>
<circle cx="1266.5" cy="550.5" r="5.5" fill="#D9D9D9" fill-opacity="0.75"/>
<circle cx="523.5" cy="713.5" r="5.5" fill="#D9D9D9" fill-opacity="0.75"/>
<line y1="-0.5" x2="13.4032" y2="-0.5" transform="matrix(-0.601818 -0.798633 0.801361 -0.598181 241.066 966.704)" stroke="#26677E"/>
<line x1="232.5" y1="957" x2="232.5" y2="927" stroke="#26677E"/>
<circle cx="335.5" cy="890.5" r="5.5" fill="#D9D9D9" fill-opacity="0.75"/>
<circle cx="200.5" cy="781.5" r="5.5" fill="#D9D9D9" fill-opacity="0.75"/>
<circle cx="431.5" cy="632.5" r="5.5" fill="#D9D9D9" fill-opacity="0.75"/>
<line x1="726.5" y1="835" x2="726.5" y2="782" stroke="#26677E"/>
<circle cx="726.5" cy="776.5" r="5.5" fill="#D9D9D9" fill-opacity="0.75"/>
<circle cx="1355.5" cy="508.5" r="5.5" fill="#26677E"/>
<line x1="673.5" y1="862" x2="673.5" y2="839" stroke="#26677E"/>
<path d="M692.783 386.6V399.8C691.556 401.4 689.903 403 687.823 404.6C685.743 406.2 683.183 407.533 680.142 408.6C677.156 409.613 673.636 410.12 669.583 410.12C663.929 410.067 658.943 408.84 654.623 406.44C650.303 403.987 646.916 400.6 644.463 396.28C642.063 391.907 640.863 386.813 640.863 381C640.863 375.187 642.063 370.093 644.463 365.72C646.916 361.347 650.303 357.96 654.623 355.56C658.943 353.107 663.929 351.88 669.583 351.88C672.516 351.88 675.156 352.12 677.503 352.6C679.849 353.08 681.956 353.747 683.823 354.6C685.743 355.4 687.476 356.307 689.023 357.32L690.623 368.6H689.903C689.103 365.507 687.769 362.92 685.903 360.84C684.089 358.707 681.796 357.08 679.023 355.96C676.249 354.84 673.103 354.28 669.583 354.28C665.103 354.28 661.156 355.4 657.743 357.64C654.329 359.88 651.663 363 649.743 367C647.823 371 646.863 375.667 646.863 381C646.863 386.333 647.823 391 649.743 395C651.663 399 654.329 402.12 657.743 404.36C661.156 406.547 665.103 407.667 669.583 407.72C671.929 407.72 674.169 407.453 676.303 406.92C678.489 406.333 680.543 405.533 682.463 404.52C684.383 403.453 686.089 402.2 687.583 400.76L687.663 386.6C687.663 384.2 686.303 383 683.583 383H682.303V382.2H697.983V383H696.783C694.009 383 692.676 384.2 692.783 386.6ZM713.269 361H723.589C726.096 361 728.336 361.293 730.309 361.88C732.336 362.467 734.043 363.32 735.429 364.44C736.869 365.56 737.963 366.92 738.709 368.52C739.456 370.12 739.829 371.933 739.829 373.96C739.829 376.2 739.296 378.28 738.229 380.2C737.163 382.12 735.669 383.693 733.749 384.92C731.883 386.147 729.749 386.893 727.349 387.16C728.256 387.533 729.296 388.36 730.469 389.64C731.696 390.92 732.736 392.173 733.589 393.4C733.589 393.4 733.936 393.88 734.629 394.84C735.323 395.747 736.203 396.893 737.269 398.28C738.389 399.613 739.483 400.893 740.549 402.12C741.669 403.347 742.683 404.413 743.589 405.32C744.549 406.227 745.563 406.947 746.629 407.48C747.749 407.96 749.029 408.2 750.469 408.2V409H747.989C745.056 409 742.629 408.627 740.709 407.88C738.843 407.133 737.323 406.227 736.149 405.16C734.976 404.04 733.963 402.973 733.109 401.96C732.896 401.693 732.389 401.027 731.589 399.96C730.843 398.84 730.016 397.64 729.109 396.36C728.203 395.08 727.376 393.933 726.629 392.92C725.883 391.853 725.429 391.213 725.269 391C724.203 389.613 722.976 388.387 721.589 387.32C720.203 386.2 718.736 385.64 717.189 385.64V384.84C717.189 384.84 717.616 384.867 718.469 384.92C719.323 384.92 720.416 384.893 721.749 384.84C723.243 384.787 724.736 384.68 726.229 384.52C727.723 384.307 729.109 383.72 730.389 382.76C731.723 381.8 732.763 380.2 733.509 377.96C733.723 377.373 733.883 376.68 733.989 375.88C734.096 375.08 734.123 374.253 734.069 373.4C734.016 371.907 733.723 370.573 733.189 369.4C732.709 368.227 731.989 367.213 731.029 366.36C730.123 365.507 729.029 364.84 727.749 364.36C726.469 363.88 725.029 363.613 723.429 363.56C720.923 363.453 718.736 363.427 716.869 363.48C715.003 363.533 714.069 363.533 714.069 363.48C714.069 363.427 713.989 363.213 713.829 362.84C713.723 362.413 713.589 362.013 713.429 361.64C713.323 361.213 713.269 361 713.269 361ZM714.229 361V409H709.109V361H714.229ZM709.349 403.88L710.309 409H703.509V408.2C703.509 408.2 703.696 408.2 704.069 408.2C704.443 408.2 704.629 408.2 704.629 408.2C705.909 408.2 706.976 407.773 707.829 406.92C708.683 406.067 709.136 405.053 709.189 403.88H709.349ZM709.349 366.04H709.189C709.136 364.813 708.683 363.8 707.829 363C706.976 362.2 705.909 361.8 704.629 361.8C704.629 361.8 704.443 361.8 704.069 361.8C703.696 361.8 703.509 361.8 703.509 361.8V361H710.309L709.349 366.04ZM713.989 403.88H714.229C714.283 405.053 714.736 406.067 715.589 406.92C716.443 407.773 717.509 408.2 718.789 408.2C718.789 408.2 718.949 408.2 719.269 408.2C719.643 408.2 719.829 408.2 719.829 408.2L719.909 409H713.029L713.989 403.88ZM764.546 361V409H759.426V361H764.546ZM786.066 406.52L785.906 409H764.386V406.52H786.066ZM782.306 383.8V386.2H764.386V383.8H782.306ZM785.986 361V363.48H764.386V361H785.986ZM790.546 397.56L786.146 409H773.986L776.706 406.52C779.372 406.52 781.506 406.147 783.106 405.4C784.759 404.6 786.092 403.533 787.106 402.2C788.119 400.813 788.999 399.267 789.746 397.56H790.546ZM782.306 386.04V390.6H781.426V389.56C781.426 388.653 781.159 387.88 780.626 387.24C780.092 386.547 779.266 386.2 778.146 386.2V386.04H782.306ZM782.306 379.4V383.96H778.146V383.8C779.266 383.8 780.092 383.48 780.626 382.84C781.159 382.147 781.426 381.347 781.426 380.44V379.4H782.306ZM785.986 363.24V368.76H785.106V367.56C785.106 366.44 784.732 365.48 783.986 364.68C783.292 363.88 782.332 363.48 781.106 363.48V363.24H785.986ZM785.986 359.72V361.8L776.866 361C778.519 361 780.279 360.867 782.146 360.6C784.012 360.28 785.292 359.987 785.986 359.72ZM759.586 403.88L760.626 409H753.666V408.2C753.666 408.2 753.852 408.2 754.226 408.2C754.599 408.2 754.786 408.2 754.786 408.2C756.119 408.2 757.212 407.773 758.066 406.92C758.919 406.067 759.372 405.053 759.426 403.88H759.586ZM759.586 366.04H759.426C759.372 364.813 758.919 363.8 758.066 363C757.212 362.2 756.119 361.8 754.786 361.8C754.786 361.8 754.599 361.8 754.226 361.8C753.852 361.8 753.666 361.8 753.666 361.8V361H760.626L759.586 366.04ZM804.858 361.08L819.658 387.4L816.378 390.2L797.898 361.08H804.858ZM820.858 388.36V409H815.658V388.36H820.858ZM834.298 361.08H839.338L820.298 390.04L817.338 389.16L834.298 361.08ZM831.258 366.12C831.844 365.053 831.871 364.067 831.338 363.16C830.804 362.253 829.951 361.8 828.778 361.8C828.778 361.8 828.618 361.8 828.298 361.8C827.978 361.8 827.818 361.8 827.818 361.8V361H844.538V361.8H843.578C842.084 361.8 840.671 362.227 839.338 363.08C838.058 363.88 837.044 364.813 836.298 365.88L831.258 366.12ZM807.658 366.04L800.858 365.8C800.004 364.573 798.938 363.613 797.658 362.92C796.431 362.173 795.044 361.8 793.498 361.8H792.537V361H811.098V361.8C811.098 361.8 810.938 361.8 810.618 361.8C810.298 361.8 810.138 361.8 810.138 361.8C808.964 361.8 808.111 362.28 807.578 363.24C807.098 364.147 807.124 365.08 807.658 366.04ZM815.898 403.88V409H810.058V408.2C810.111 408.2 810.271 408.2 810.538 408.2C810.858 408.2 811.018 408.2 811.018 408.2C812.298 408.2 813.364 407.773 814.218 406.92C815.124 406.067 815.604 405.053 815.658 403.88H815.898ZM820.618 403.88H820.858C820.911 405.053 821.364 406.067 822.218 406.92C823.124 407.773 824.218 408.2 825.498 408.2C825.498 408.2 825.658 408.2 825.978 408.2C826.298 408.2 826.458 408.2 826.458 408.2V409H820.618V403.88ZM893.869 361V409H888.749V361H893.869ZM859.229 361V409H854.109V361H859.229ZM889.549 384.12V386.52H858.349V384.12H889.549ZM854.349 403.88V409H848.509V408.2C848.509 408.2 848.669 408.2 848.989 408.2C849.309 408.2 849.469 408.2 849.469 408.2C850.749 408.2 851.816 407.773 852.669 406.92C853.576 406.067 854.056 405.053 854.109 403.88H854.349ZM858.989 403.88H859.229C859.229 405.053 859.683 406.067 860.589 406.92C861.496 407.773 862.589 408.2 863.869 408.2C863.869 408.2 864.029 408.2 864.349 408.2C864.669 408.2 864.829 408.2 864.829 408.2V409H858.989V403.88ZM858.989 366.12V361H864.829V361.8C864.829 361.8 864.669 361.8 864.349 361.8C864.029 361.8 863.869 361.8 863.869 361.8C862.589 361.8 861.496 362.227 860.589 363.08C859.683 363.88 859.229 364.893 859.229 366.12H858.989ZM854.349 366.12H854.109C854.056 364.893 853.576 363.88 852.669 363.08C851.816 362.227 850.749 361.8 849.469 361.8C849.469 361.8 849.309 361.8 848.989 361.8C848.669 361.8 848.509 361.8 848.509 361.8V361H854.349V366.12ZM888.989 403.88V409H883.149V408.2C883.149 408.2 883.309 408.2 883.629 408.2C883.949 408.2 884.109 408.2 884.109 408.2C885.389 408.2 886.456 407.773 887.309 406.92C888.216 406.067 888.696 405.053 888.749 403.88H888.989ZM893.629 403.88H893.869C893.923 405.053 894.376 406.067 895.229 406.92C896.136 407.773 897.229 408.2 898.509 408.2C898.509 408.2 898.669 408.2 898.989 408.2C899.309 408.2 899.469 408.2 899.469 408.2V409H893.629V403.88ZM893.629 366.12V361H899.469V361.8C899.469 361.8 899.309 361.8 898.989 361.8C898.669 361.8 898.509 361.8 898.509 361.8C897.229 361.8 896.136 362.227 895.229 363.08C894.376 363.88 893.923 364.893 893.869 366.12H893.629ZM888.989 366.12H888.749C888.696 364.893 888.216 363.88 887.309 363.08C886.456 362.227 885.389 361.8 884.109 361.8C884.109 361.8 883.949 361.8 883.629 361.8C883.309 361.8 883.149 361.8 883.149 361.8V361H888.989V366.12ZM933.585 359.88C937.318 359.88 940.812 360.493 944.065 361.72C947.372 362.893 950.252 364.6 952.705 366.84C955.212 369.08 957.158 371.747 958.545 374.84C959.932 377.88 960.625 381.267 960.625 385C960.625 388.733 959.932 392.147 958.545 395.24C957.158 398.28 955.212 400.92 952.705 403.16C950.252 405.4 947.372 407.133 944.065 408.36C940.812 409.533 937.318 410.12 933.585 410.12C929.852 410.12 926.358 409.533 923.105 408.36C919.852 407.133 916.972 405.4 914.465 403.16C912.012 400.92 910.092 398.28 908.705 395.24C907.318 392.147 906.625 388.733 906.625 385C906.625 381.267 907.318 377.88 908.705 374.84C910.092 371.747 912.012 369.08 914.465 366.84C916.972 364.6 919.852 362.893 923.105 361.72C926.358 360.493 929.852 359.88 933.585 359.88ZM933.585 407.72C937.532 407.72 941.105 406.76 944.305 404.84C947.505 402.92 950.038 400.253 951.905 396.84C953.772 393.427 954.705 389.48 954.705 385C954.705 380.467 953.772 376.52 951.905 373.16C950.038 369.747 947.505 367.08 944.305 365.16C941.105 363.24 937.532 362.28 933.585 362.28C929.692 362.28 926.145 363.24 922.945 365.16C919.745 367.08 917.212 369.747 915.345 373.16C913.478 376.52 912.545 380.467 912.545 385C912.545 389.48 913.478 393.427 915.345 396.84C917.212 400.253 919.745 402.92 922.945 404.84C926.145 406.76 929.692 407.72 933.585 407.72ZM977.157 361V391.24C977.157 396.413 978.464 400.493 981.077 403.48C983.744 406.467 987.37 407.96 991.957 407.96C997.024 407.96 1001 406.547 1003.88 403.72C1006.81 400.893 1008.28 397.027 1008.28 392.12V361H1011.96V392.12C1011.96 397.667 1010.17 402.067 1006.6 405.32C1003.08 408.52 998.224 410.12 992.037 410.12C985.904 410.12 981.024 408.52 977.397 405.32C973.824 402.12 972.037 397.747 972.037 392.2V361H977.157ZM972.197 361V365.24H972.037C971.984 364.28 971.584 363.48 970.837 362.84C970.144 362.147 969.264 361.8 968.197 361.8C968.197 361.8 967.984 361.8 967.557 361.8C967.184 361.8 966.997 361.8 966.997 361.8V361H972.197ZM982.197 361V361.8C982.197 361.8 981.984 361.8 981.557 361.8C981.184 361.8 980.997 361.8 980.997 361.8C979.984 361.8 979.077 362.147 978.277 362.84C977.53 363.48 977.157 364.28 977.157 365.24H976.997V361H982.197ZM1008.44 361V365.24H1008.28C1008.28 364.28 1007.9 363.48 1007.16 362.84C1006.41 362.147 1005.5 361.8 1004.44 361.8C1004.44 361.8 1004.22 361.8 1003.8 361.8C1003.42 361.8 1003.24 361.8 1003.24 361.8V361H1008.44ZM1017 361V361.8C1017 361.8 1016.78 361.8 1016.36 361.8C1015.98 361.8 1015.8 361.8 1015.8 361.8C1014.78 361.8 1013.9 362.147 1013.16 362.84C1012.41 363.48 1012.01 364.28 1011.96 365.24H1011.8V361H1017ZM1028.45 359.8L1072.77 401.56L1073.57 410.12L1029.25 368.12L1028.45 359.8ZM1028.61 404.04V409H1022.61V408.2C1022.61 408.2 1022.83 408.2 1023.25 408.2C1023.73 408.2 1023.97 408.2 1023.97 408.2C1025.2 408.2 1026.24 407.8 1027.09 407C1027.95 406.2 1028.37 405.213 1028.37 404.04H1028.61ZM1031.97 404.04C1031.97 405.213 1032.4 406.2 1033.25 407C1034.16 407.8 1035.2 408.2 1036.37 408.2C1036.37 408.2 1036.59 408.2 1037.01 408.2C1037.49 408.2 1037.73 408.2 1037.73 408.2V409H1031.73V404.04H1031.97ZM1028.45 359.8L1031.89 364.28L1031.97 409H1028.37V369.8C1028.37 367.08 1028.24 364.733 1027.97 362.76C1027.76 360.787 1027.65 359.8 1027.65 359.8H1028.45ZM1073.57 361V399.88C1073.57 401.587 1073.63 403.24 1073.73 404.84C1073.84 406.387 1073.95 407.667 1074.05 408.68C1074.21 409.64 1074.29 410.12 1074.29 410.12H1073.57L1070.05 405.88V361H1073.57ZM1073.33 365.96V361H1079.33V361.8C1079.33 361.8 1079.09 361.8 1078.61 361.8C1078.19 361.8 1077.97 361.8 1077.97 361.8C1076.8 361.8 1075.76 362.2 1074.85 363C1074 363.8 1073.57 364.787 1073.57 365.96H1073.33ZM1070.05 365.96C1070 364.787 1069.55 363.8 1068.69 363C1067.84 362.2 1066.8 361.8 1065.57 361.8C1065.57 361.8 1065.33 361.8 1064.85 361.8C1064.43 361.8 1064.21 361.8 1064.21 361.8V361H1070.21V365.96H1070.05ZM1113.28 361C1118.56 361 1123.12 361.96 1126.96 363.88C1130.8 365.8 1133.76 368.573 1135.84 372.2C1137.92 375.773 1138.96 380.04 1138.96 385C1138.96 389.96 1137.92 394.227 1135.84 397.8C1133.76 401.373 1130.8 404.147 1126.96 406.12C1123.12 408.04 1118.56 409 1113.28 409H1096.24L1096.08 406.6C1099.81 406.6 1102.93 406.6 1105.44 406.6C1108 406.6 1109.94 406.6 1111.28 406.6C1112.61 406.6 1113.28 406.6 1113.28 406.6C1119.46 406.6 1124.32 404.68 1127.84 400.84C1131.41 396.947 1133.2 391.667 1133.2 385C1133.2 378.333 1131.41 373.08 1127.84 369.24C1124.32 365.347 1119.46 363.4 1113.28 363.4C1113.28 363.4 1112.58 363.4 1111.2 363.4C1109.81 363.4 1107.78 363.4 1105.12 363.4C1102.45 363.4 1099.17 363.4 1095.28 363.4V361H1113.28ZM1097.36 361V409H1092.16V361H1097.36ZM1092.32 403.8V409H1086.56V408.2C1086.56 408.2 1086.72 408.2 1087.04 408.2C1087.41 408.2 1087.6 408.2 1087.6 408.2C1088.88 408.2 1089.94 407.773 1090.8 406.92C1091.65 406.013 1092.1 404.973 1092.16 403.8H1092.32ZM1092.32 366.2H1092.16C1092.1 364.92 1091.62 363.88 1090.72 363.08C1089.86 362.227 1088.8 361.8 1087.52 361.8C1087.52 361.8 1087.36 361.8 1087.04 361.8C1086.72 361.8 1086.56 361.8 1086.56 361.8V361H1092.32V366.2Z" fill="#FBFBFB" fill-opacity="0.56"/>
</svg>
